<?xml version="1.0" encoding="UTF-8" standalone="no" ?>
<!DOCTYPE svg PUBLIC "-//W3C//DTD SVG 1.1//EN" "http://www.w3.org/Graphics/SVG/1.1/DTD/svg11.dtd">
<svg xmlns="http://www.w3.org/2000/svg" xmlns:xlink="http://www.w3.org/1999/xlink" version="1.1" width="1080" height="1080" viewBox="0 0 1080 1080" xml:space="preserve">
<desc>Created with Fabric.js 5.2.4</desc>
<defs>
</defs>
<g transform="matrix(1 0 0 1 540 540)" id="a1a28608-fd31-481d-bb3e-3abb85bdc92c"  >
<rect style="stroke: none; stroke-width: 1; stroke-dasharray: none; stroke-linecap: butt; stroke-dashoffset: 0; stroke-linejoin: miter; stroke-miterlimit: 4; fill: rgb(255,255,255); fill-rule: nonzero; opacity: 1; visibility: hidden;" vector-effect="non-scaling-stroke"  x="-540" y="-540" rx="0" ry="0" width="1080" height="1080" />
</g>
<g transform="matrix(1 0 0 1 540 540)" id="4f0156cb-4bde-4693-8c30-126de33eb217"  >
</g>
<g transform="matrix(4.98 0 0 4.98 540 540)"  >
<g style="" vector-effect="non-scaling-stroke"   >
		<g transform="matrix(0.47 0 0 -0.47 17.75 -96.04)" clip-path="url(#CLIPPATH_15)"  >
<clipPath id="CLIPPATH_15" >
	<path transform="matrix(1 0 0 1 -37.62 -202.39) translate(-540, -540)" d="M 0 1080 L 1080 1080 L 1080 0 L 0 0 Z" stroke-linecap="round" />
</clipPath>
<path style="stroke: none; stroke-width: 1; stroke-dasharray: none; stroke-linecap: butt; stroke-dashoffset: 0; stroke-linejoin: miter; stroke-miterlimit: 4; fill: rgb(246,177,50); fill-rule: nonzero; opacity: 1;" vector-effect="non-scaling-stroke"  transform=" translate(18.16, 10.52)" d="M 0 0 C -1.843 3.252 -4.336 5.745 -7.588 7.588 C -10.948 9.431 -14.417 10.407 -18.211 10.407 C -21.68 10.407 -25.149 9.431 -28.401 7.588 C -31.762 5.745 -34.255 3.252 -36.206 0 C -38.048 -3.143 -38.916 -6.612 -38.916 -10.407 C -38.916 -14.092 -38.048 -17.561 -36.206 -20.813 C -34.255 -23.957 -31.762 -26.559 -28.401 -28.51 C -25.149 -30.461 -21.68 -31.437 -18.211 -31.437 C -14.417 -31.437 -10.948 -30.461 -7.588 -28.51 C -4.336 -26.559 -1.843 -23.957 0 -20.813 C 1.735 -17.561 2.602 -14.092 2.602 -10.407 C 2.602 -6.612 1.735 -3.143 0 0" stroke-linecap="round" />
</g>
		<g transform="matrix(0.47 0 0 -0.47 -1.34 -27.72)" clip-path="url(#CLIPPATH_16)"  >
<clipPath id="CLIPPATH_16" >
	<path transform="matrix(1 0 0 1 1.27 -57.36) translate(-540, -540)" d="M 0 1080 L 1080 1080 L 1080 0 L 0 0 Z" stroke-linecap="round" />
</clipPath>
<path style="stroke: none; stroke-width: 1; stroke-dasharray: none; stroke-linecap: butt; stroke-dashoffset: 0; stroke-linejoin: miter; stroke-miterlimit: 4; fill: rgb(71,34,92); fill-rule: nonzero; opacity: 1;" vector-effect="non-scaling-stroke"  transform=" translate(-538.73, -597.36)" d="M 687.73 560.646 L 467.516 560.646 L 467.516 674.903 L 687.73 674.903 Z M 687.73 708.544 L 467.34 708.544 C 444.736 708.544 433.61 697.33 433.875 674.903 L 433.875 560.646 L 422.636 560.646 L 422.636 726.614 C 420.648 725.179 414.619 721.216 405.936 721.215 C 397.249 721.214 391.216 725.179 389.229 726.614 L 389.229 560.646 L 372.641 560.646 C 363.4 560.646 355.908 553.154 355.908 543.913 C 355.908 534.672 363.4 527.181 372.641 527.181 L 433.875 527.181 L 433.875 468.11 L 449.993 476.94 L 467.516 468.11 L 467.516 527.181 L 687.73 527.181 C 709.981 527.181 721.283 538.395 721.548 560.646 L 721.548 674.903 C 721.283 697.33 709.981 708.544 687.73 708.544" stroke-linecap="round" />
</g>
		<g transform="matrix(0.47 0 0 -0.47 -75.98 52.98)" clip-path="url(#CLIPPATH_17)"  >
<clipPath id="CLIPPATH_17" >
	<path transform="matrix(1 0 0 1 160.25 111.8) translate(-540, -540)" d="M 0 1080 L 1080 1080 L 1080 0 L 0 0 Z" stroke-linecap="round" />
</clipPath>
<path style="stroke: none; stroke-width: 1; stroke-dasharray: none; stroke-linecap: butt; stroke-dashoffset: 0; stroke-linejoin: miter; stroke-miterlimit: 4; fill: rgb(71,34,92); fill-rule: nonzero; opacity: 1;" vector-effect="non-scaling-stroke"  transform=" translate(0, -4.24)" d="M 0 0 C 1.157 0 2.2 0.432 3.117 1.301 C 3.986 2.074 4.418 3.087 4.418 4.346 C 4.418 5.455 3.986 6.42 3.117 7.241 C 2.152 8.062 1.109 8.476 0 8.476 C -1.157 8.476 -2.2 8.134 -3.117 7.463 C -3.986 6.492 -4.418 5.455 -4.418 4.346 C -4.418 3.087 -3.986 2.074 -3.117 1.301 C -2.344 0.432 -1.301 0 0 0" stroke-linecap="round" />
</g>
		<g transform="matrix(0.47 0 0 -0.47 -82.51 52.98)" clip-path="url(#CLIPPATH_18)"  >
<clipPath id="CLIPPATH_18" >
	<path transform="matrix(1 0 0 1 174.01 111.8) translate(-540, -540)" d="M 0 1080 L 1080 1080 L 1080 0 L 0 0 Z" stroke-linecap="round" />
</clipPath>
<path style="stroke: none; stroke-width: 1; stroke-dasharray: none; stroke-linecap: butt; stroke-dashoffset: 0; stroke-linejoin: miter; stroke-miterlimit: 4; fill: rgb(71,34,92); fill-rule: nonzero; opacity: 1;" vector-effect="non-scaling-stroke"  transform=" translate(0, -4.24)" d="M 0 0 C 1.157 0 2.194 0.432 3.111 1.301 C 3.98 2.074 4.418 3.087 4.418 4.346 C 4.418 5.455 3.98 6.42 3.111 7.241 C 2.146 8.062 1.109 8.476 0 8.476 C -1.163 8.476 -2.2 8.134 -3.117 7.463 C -3.986 6.492 -4.418 5.455 -4.418 4.346 C -4.418 3.087 -3.986 2.074 -3.117 1.301 C -2.344 0.432 -1.307 0 0 0" stroke-linecap="round" />
</g>
		<g transform="matrix(0.47 0 0 -0.47 -63.62 76.65)" clip-path="url(#CLIPPATH_19)"  >
<clipPath id="CLIPPATH_19" >
	<path transform="matrix(1 0 0 1 134.17 161.72) translate(-540, -540)" d="M 0 1080 L 1080 1080 L 1080 0 L 0 0 Z" stroke-linecap="round" />
</clipPath>
<path style="stroke: none; stroke-width: 1; stroke-dasharray: none; stroke-linecap: butt; stroke-dashoffset: 0; stroke-linejoin: miter; stroke-miterlimit: 4; fill: rgb(71,34,92); fill-rule: nonzero; opacity: 1;" vector-effect="non-scaling-stroke"  transform=" translate(0, 4.24)" d="M 0 0 C -1.163 0 -2.2 -0.336 -3.117 -1.013 C -3.986 -1.978 -4.424 -3.015 -4.424 -4.124 C -4.424 -5.383 -3.986 -6.396 -3.117 -7.169 C -2.344 -8.038 -1.307 -8.476 0 -8.476 C 1.157 -8.476 2.194 -8.038 3.111 -7.169 C 3.98 -6.396 4.418 -5.383 4.418 -4.124 C 4.418 -3.015 3.98 -2.05 3.111 -1.229 C 2.146 -0.408 1.109 0 0 0" stroke-linecap="round" />
</g>
		<g transform="matrix(0.47 0 0 -0.47 -58.13 76.65)" clip-path="url(#CLIPPATH_20)"  >
<clipPath id="CLIPPATH_20" >
	<path transform="matrix(1 0 0 1 122.58 161.72) translate(-540, -540)" d="M 0 1080 L 1080 1080 L 1080 0 L 0 0 Z" stroke-linecap="round" />
</clipPath>
<path style="stroke: none; stroke-width: 1; stroke-dasharray: none; stroke-linecap: butt; stroke-dashoffset: 0; stroke-linejoin: miter; stroke-miterlimit: 4; fill: rgb(71,34,92); fill-rule: nonzero; opacity: 1;" vector-effect="non-scaling-stroke"  transform=" translate(3.11, -2.93)" d="M 0 0 C 0.869 0.773 1.307 1.786 1.307 3.045 C 1.307 4.154 0.869 5.119 0 5.94 C -0.965 6.761 -2.002 7.169 -3.117 7.169 C -4.274 7.169 -5.311 6.833 -6.228 6.156 C -7.097 5.191 -7.535 4.154 -7.535 3.045 C -7.535 1.786 -7.097 0.773 -6.228 0 C -5.461 -0.869 -4.418 -1.307 -3.117 -1.307 C -1.954 -1.307 -0.917 -0.869 0 0" stroke-linecap="round" />
</g>
		<g transform="matrix(0.47 0 0 -0.47 -67.19 64.83)" clip-path="url(#CLIPPATH_21)"  >
<clipPath id="CLIPPATH_21" >
	<path transform="matrix(1 0 0 1 141.34 136.9) translate(-540, -540)" d="M 0 1080 L 1080 1080 L 1080 0 L 0 0 Z" stroke-linecap="round" />
</clipPath>
<path style="stroke: none; stroke-width: 1; stroke-dasharray: none; stroke-linecap: butt; stroke-dashoffset: 0; stroke-linejoin: miter; stroke-miterlimit: 4; fill: rgb(71,34,92); fill-rule: nonzero; opacity: 1;" vector-effect="non-scaling-stroke"  transform=" translate(-15.79, -1.31)" d="M 0 0 C 0 -3.956 -2.607 -6.564 -7.822 -7.822 L -9.854 -7.822 C -13.816 -7.822 -16.424 -5.215 -17.677 0 L -17.677 1.738 C -17.677 5.7 -15.069 8.308 -9.854 9.567 L -7.822 9.567 C -3.866 9.567 -1.259 6.959 0 1.738 Z M 16.514 -16.514 L 17.964 -16.514 L 18.258 -16.514 L 40.274 -16.514 L 42.013 -16.514 C 43.073 -16.514 44.428 -16.418 46.071 -16.226 C 54.57 -13.714 58.82 -8.212 58.82 0.294 L 58.82 18.546 L 58.532 19.127 C 52.928 16.13 50.129 12.851 50.129 9.273 L 50.129 -0.869 C 50.129 -4.633 47.809 -6.953 43.169 -7.822 L 42.013 -7.822 L 40.274 -7.822 L 34.916 -7.822 C 36.072 -5.407 36.654 -2.703 36.654 0.294 L 36.654 18.258 L 36.366 18.839 C 30.762 15.842 27.962 12.558 27.962 8.985 L 27.962 -0.869 C 27.962 -4.633 25.643 -6.953 21.003 -7.822 L 17.677 -7.822 C 12.462 -7.337 9.854 -5.023 9.854 -0.869 L 9.854 18.546 L 9.561 19.127 C 8.691 19.127 6.468 17.485 2.895 14.2 C -0.725 16.903 -4.591 18.258 -8.697 18.258 C -11.113 18.066 -12.462 17.97 -12.749 17.97 C -22.412 14.686 -27.243 9.081 -27.243 1.163 C -27.243 0.096 -27.045 -1.349 -26.662 -3.183 C -23.425 -12.072 -17.533 -16.514 -8.985 -16.514 C -3.477 -16.514 1.061 -14.584 4.633 -10.717 C 7.836 -14.178 11.77 -15.999 16.36 -16.362 C 16.435 -16.388 16.413 -16.514 16.514 -16.514" stroke-linecap="round" />
</g>
		<g transform="matrix(0.47 0 0 -0.47 -50.3 76.65)" clip-path="url(#CLIPPATH_22)"  >
<clipPath id="CLIPPATH_22" >
	<path transform="matrix(1 0 0 1 106.06 161.72) translate(-540, -540)" d="M 0 1080 L 1080 1080 L 1080 0 L 0 0 Z" stroke-linecap="round" />
</clipPath>
<path style="stroke: none; stroke-width: 1; stroke-dasharray: none; stroke-linecap: butt; stroke-dashoffset: 0; stroke-linejoin: miter; stroke-miterlimit: 4; fill: rgb(71,34,92); fill-rule: nonzero; opacity: 1;" vector-effect="non-scaling-stroke"  transform=" translate(-3.12, 3.23)" d="M 0 0 C -0.869 -0.965 -1.301 -2.002 -1.301 -3.111 C -1.301 -4.37 -0.869 -5.383 0 -6.156 C 0.773 -7.025 1.81 -7.463 3.117 -7.463 C 4.274 -7.463 5.311 -7.025 6.228 -6.156 C 7.103 -5.383 7.535 -4.37 7.535 -3.111 C 7.535 -2.002 7.103 -1.037 6.228 -0.216 C 5.263 0.605 4.226 1.013 3.117 1.013 C 1.954 1.013 0.917 0.677 0 0" stroke-linecap="round" />
</g>
		<g transform="matrix(0.47 0 0 -0.47 -24.66 64.79)" clip-path="url(#CLIPPATH_23)"  >
<clipPath id="CLIPPATH_23" >
	<path transform="matrix(1 0 0 1 51.65 136.94) translate(-540, -540)" d="M 0 1080 L 1080 1080 L 1080 0 L 0 0 Z" stroke-linecap="round" />
</clipPath>
<path style="stroke: none; stroke-width: 1; stroke-dasharray: none; stroke-linecap: butt; stroke-dashoffset: 0; stroke-linejoin: miter; stroke-miterlimit: 4; fill: rgb(71,34,92); fill-rule: nonzero; opacity: 1;" vector-effect="non-scaling-stroke"  transform=" translate(11.88, 2.5)" d="M 0 0 C 0 -5.071 -3.189 -9.129 -9.561 -12.174 L -15.651 -8.116 C -17.581 -6.186 -19.031 -1.738 -19.996 5.215 L -19.415 5.503 L 0.288 5.503 L 0.869 5.215 C 0.527 1.738 0.24 0 0 0 M 23.185 19.703 L 23.185 -4.639 C 23.185 -8.404 20.865 -10.723 16.226 -11.593 L 14.2 -11.593 L 12.462 -11.593 L 4.633 -11.593 C 5.023 -11.107 5.215 -10.723 5.215 -10.436 C 7.001 -10.436 9.033 -2.416 11.299 13.619 L 11.299 13.906 L -29.557 13.906 L -30.138 13.619 C -28.981 6.713 -28.4 2.943 -28.4 2.32 C -27.291 -4.927 -25.649 -9.567 -23.473 -11.593 L -31.295 -11.593 L -33.615 -11.593 L -35.641 -11.593 L -35.641 14.853 L -35.935 15.429 C -41.533 12.438 -44.338 9.153 -44.338 5.574 L -44.338 -13.043 C -44.338 -16.376 -45.495 -19.367 -47.815 -22.022 C -53.03 -25.697 -55.637 -29.779 -55.637 -34.268 L -55.056 -34.556 C -52.934 -34.556 -50.033 -33.687 -46.364 -31.948 C -41.581 -28.712 -38.494 -24.827 -37.091 -20.284 L -33.615 -20.284 L -31.295 -20.284 L 12.462 -20.284 L 14.2 -20.284 L 15.069 -20.284 C 16.13 -20.284 17.485 -20.188 19.127 -19.996 C 27.627 -17.485 31.877 -11.982 31.877 -3.477 L 31.877 28.975 L 31.589 29.557 C 25.984 26.56 23.185 23.275 23.185 19.703" stroke-linecap="round" />
</g>
		<g transform="matrix(0.47 0 0 -0.47 1.04 61.5)" clip-path="url(#CLIPPATH_24)"  >
<clipPath id="CLIPPATH_24" >
	<path transform="matrix(1 0 0 1 -2.24 129.95) translate(-540, -540)" d="M 0 1080 L 1080 1080 L 1080 0 L 0 0 Z" stroke-linecap="round" />
</clipPath>
<path style="stroke: none; stroke-width: 1; stroke-dasharray: none; stroke-linecap: butt; stroke-dashoffset: 0; stroke-linejoin: miter; stroke-miterlimit: 4; fill: rgb(71,34,92); fill-rule: nonzero; opacity: 1;" vector-effect="non-scaling-stroke"  transform=" translate(4.35, -24.2)" d="M 0 0 L 0 48.396 L -0.294 48.978 C -5.892 45.981 -8.697 42.696 -8.697 39.123 L -8.697 0 C -8.697 -0.384 -8.5 -0.575 -8.116 -0.575 L -0.581 -0.575 C -0.198 -0.575 0 -0.384 0 0" stroke-linecap="round" />
</g>
		<g transform="matrix(0.47 0 0 -0.47 48.74 42.08)" clip-path="url(#CLIPPATH_25)"  >
<clipPath id="CLIPPATH_25" >
	<path transform="matrix(1 0 0 1 -102.91 88.8) translate(-540, -540)" d="M 0 1080 L 1080 1080 L 1080 0 L 0 0 Z" stroke-linecap="round" />
</clipPath>
<path style="stroke: none; stroke-width: 1; stroke-dasharray: none; stroke-linecap: butt; stroke-dashoffset: 0; stroke-linejoin: miter; stroke-miterlimit: 4; fill: rgb(71,34,92); fill-rule: nonzero; opacity: 1;" vector-effect="non-scaling-stroke"  transform=" translate(1.3, 4.34)" d="M 0 0 L -2.607 0 C -2.943 0 -3.135 -0.192 -3.183 -0.575 L -3.183 -5.796 L -7.822 -5.796 C -8.014 -5.071 -8.11 -4.202 -8.11 -3.183 C -8.11 -1.013 -9.171 0.438 -11.299 1.163 L -11.587 0.581 L -11.587 -4.921 C -11.587 -8.212 -9.752 -9.848 -6.084 -9.848 L -4.346 -9.848 C -3.381 -9.848 -2.41 -9.561 -1.445 -8.979 C 0.048 -9.561 1.115 -9.848 1.744 -9.848 L 3.483 -9.848 C 7.151 -9.848 8.985 -8.212 8.985 -4.921 L 8.985 0.581 L 8.697 1.163 C 8.116 0.965 7.828 0.773 7.828 0.581 C 6.234 0.581 5.365 -1.546 5.221 -5.796 L 0.581 -5.796 L 0.581 -0.575 C 0.581 -0.24 0.39 -0.048 0 0" stroke-linecap="round" />
</g>
		<g transform="matrix(0.47 0 0 -0.47 49.35 37.07)" clip-path="url(#CLIPPATH_26)"  >
<clipPath id="CLIPPATH_26" >
	<path transform="matrix(1 0 0 1 -104.21 78.22) translate(-540, -540)" d="M 0 1080 L 1080 1080 L 1080 0 L 0 0 Z" stroke-linecap="round" />
</clipPath>
<path style="stroke: none; stroke-width: 1; stroke-dasharray: none; stroke-linecap: butt; stroke-dashoffset: 0; stroke-linejoin: miter; stroke-miterlimit: 4; fill: rgb(71,34,92); fill-rule: nonzero; opacity: 1;" vector-effect="non-scaling-stroke"  transform=" translate(-5.07, -2.46)" d="M 0 0 C 11.209 1.738 16.807 3.572 16.807 5.503 C 16.807 5.7 16.711 5.988 16.52 6.372 C 11.305 5.455 8.697 4.879 8.697 4.633 C -1.541 2.991 -6.659 1.253 -6.659 -0.581 L -6.084 -1.451 C -2.512 -0.773 -0.48 -0.288 0 0" stroke-linecap="round" />
</g>
		<g transform="matrix(0.47 0 0 -0.47 51.05 64.91)" clip-path="url(#CLIPPATH_27)"  >
<clipPath id="CLIPPATH_27" >
	<path transform="matrix(1 0 0 1 -108.27 137.19) translate(-540, -540)" d="M 0 1080 L 1080 1080 L 1080 0 L 0 0 Z" stroke-linecap="round" />
</clipPath>
<path style="stroke: none; stroke-width: 1; stroke-dasharray: none; stroke-linecap: butt; stroke-dashoffset: 0; stroke-linejoin: miter; stroke-miterlimit: 4; fill: rgb(71,34,92); fill-rule: nonzero; opacity: 1;" vector-effect="non-scaling-stroke"  transform=" translate(-26.77, -1.31)" d="M 0 0 C 0 -4.927 -2.901 -7.822 -8.697 -8.691 C -14.685 -7.966 -17.677 -5.071 -17.677 0 L -17.677 1.738 C -16.28 6.761 -13.379 9.273 -8.985 9.273 C -2.997 8.548 0 5.652 0 0.581 Z M 46.292 9.561 L 65.995 9.561 L 66.576 9.273 C 66.235 5.796 65.947 4.058 65.707 4.058 C 65.707 -1.013 62.518 -5.071 56.147 -8.116 L 50.057 -4.058 C 48.127 -2.128 46.676 2.32 45.711 9.273 Z M 34.412 -16.226 L 78.169 -16.226 L 79.907 -16.226 C 80.968 -16.226 82.323 -16.13 83.965 -15.938 C 92.465 -13.427 96.715 -7.924 96.715 0.581 L 96.715 18.833 L 96.427 19.415 C 90.822 16.418 88.023 13.139 88.023 9.561 L 88.023 -0.581 C 88.023 -4.346 85.703 -6.665 81.064 -7.535 L 79.907 -7.535 L 78.169 -7.535 L 70.341 -7.535 C 70.73 -7.049 70.922 -6.665 70.922 -6.378 C 72.708 -6.378 74.74 1.642 77.006 17.677 L 77.006 17.964 L 36.15 17.964 L 35.569 17.677 C 36.726 10.771 37.307 7.001 37.307 6.378 C 38.416 -0.869 40.058 -5.509 42.234 -7.535 L 34.412 -7.535 L 32.092 -7.535 L 28.112 -7.535 C 29.269 -5.119 29.851 -2.416 29.851 0.581 L 29.851 32.746 L 29.557 33.327 C 23.958 30.33 21.153 27.045 21.153 23.473 L 21.153 -0.581 C 21.153 -4.346 18.839 -6.665 14.2 -7.535 L 13.331 -7.535 L 11.011 -7.535 L 7.822 -7.535 C 8.979 -4.058 9.561 -1.546 9.561 0 C 9.561 1.061 9.369 2.607 8.979 4.639 C 5.599 13.523 -0.294 17.964 -8.697 17.964 C -11.832 17.964 -15.117 17.095 -18.546 15.357 C -23.761 11.347 -26.374 7.87 -26.374 4.927 C -27.435 4.927 -28.79 4.831 -30.426 4.639 C -38.932 2.128 -43.181 -3.381 -43.181 -11.88 L -43.181 -30.138 L -42.888 -30.714 C -37.289 -27.723 -34.484 -24.438 -34.484 -20.865 L -34.484 -10.723 C -34.484 -6.953 -32.164 -4.633 -27.531 -3.764 L -26.662 -3.764 L -26.374 -4.927 C -22.849 -13.235 -17.053 -17.389 -8.985 -17.389 C -7.439 -17.389 -5.023 -16.999 -1.738 -16.226 L 11.011 -16.226 L 13.331 -16.226 L 32.092 -16.226 Z" stroke-linecap="round" />
</g>
		<g transform="matrix(0.47 0 0 -0.47 81.8 43.97)" clip-path="url(#CLIPPATH_28)"  >
<clipPath id="CLIPPATH_28" >
	<path transform="matrix(1 0 0 1 -172.64 92.78) translate(-540, -540)" d="M 0 1080 L 1080 1080 L 1080 0 L 0 0 Z" stroke-linecap="round" />
</clipPath>
<path style="stroke: none; stroke-width: 1; stroke-dasharray: none; stroke-linecap: butt; stroke-dashoffset: 0; stroke-linejoin: miter; stroke-miterlimit: 4; fill: rgb(71,34,92); fill-rule: nonzero; opacity: 1;" vector-effect="non-scaling-stroke"  transform=" translate(11.45, 3.91)" d="M 0 0 C -5.221 -0.917 -7.828 -1.499 -7.828 -1.738 C -18.066 -3.381 -23.185 -5.119 -23.185 -6.953 L -22.604 -7.822 C -19.031 -7.151 -17.005 -6.665 -16.52 -6.378 C -5.317 -4.639 0.288 -2.805 0.288 -0.869 C 0.288 -0.677 0.192 -0.39 0 0" stroke-linecap="round" />
</g>
		<g transform="matrix(0.47 0 0 -0.47 78.6 52.98)" clip-path="url(#CLIPPATH_29)"  >
<clipPath id="CLIPPATH_29" >
	<path transform="matrix(1 0 0 1 -165.83 111.8) translate(-540, -540)" d="M 0 1080 L 1080 1080 L 1080 0 L 0 0 Z" stroke-linecap="round" />
</clipPath>
<path style="stroke: none; stroke-width: 1; stroke-dasharray: none; stroke-linecap: butt; stroke-dashoffset: 0; stroke-linejoin: miter; stroke-miterlimit: 4; fill: rgb(71,34,92); fill-rule: nonzero; opacity: 1;" vector-effect="non-scaling-stroke"  transform=" translate(0, -4.24)" d="M 0 0 C 1.163 0 2.2 0.432 3.117 1.301 C 3.986 2.074 4.424 3.087 4.424 4.346 C 4.424 5.455 3.986 6.42 3.117 7.241 C 2.152 8.062 1.115 8.476 0 8.476 C -1.157 8.476 -2.194 8.134 -3.111 7.463 C -3.98 6.492 -4.418 5.455 -4.418 4.346 C -4.418 3.087 -3.98 2.074 -3.111 1.301 C -2.344 0.432 -1.301 0 0 0" stroke-linecap="round" />
</g>
		<g transform="matrix(0.47 0 0 -0.47 84.09 52.98)" clip-path="url(#CLIPPATH_30)"  >
<clipPath id="CLIPPATH_30" >
	<path transform="matrix(1 0 0 1 -177.42 111.8) translate(-540, -540)" d="M 0 1080 L 1080 1080 L 1080 0 L 0 0 Z" stroke-linecap="round" />
</clipPath>
<path style="stroke: none; stroke-width: 1; stroke-dasharray: none; stroke-linecap: butt; stroke-dashoffset: 0; stroke-linejoin: miter; stroke-miterlimit: 4; fill: rgb(71,34,92); fill-rule: nonzero; opacity: 1;" vector-effect="non-scaling-stroke"  transform=" translate(0, 4.24)" d="M 0 0 C -1.157 0 -2.2 -0.342 -3.117 -1.013 C -3.986 -1.984 -4.418 -3.021 -4.418 -4.13 C -4.418 -5.389 -3.986 -6.402 -3.117 -7.175 C -2.344 -8.044 -1.301 -8.476 0 -8.476 C 1.157 -8.476 2.2 -8.044 3.117 -7.175 C 3.986 -6.402 4.418 -5.389 4.418 -4.13 C 4.418 -3.021 3.986 -2.056 3.117 -1.235 C 2.146 -0.414 1.109 0 0 0" stroke-linecap="round" />
</g>
		<g transform="matrix(0.47 0 0 -0.47 -81 98.17)" clip-path="url(#CLIPPATH_31)"  >
<clipPath id="CLIPPATH_31" >
	<path transform="matrix(1 0 0 1 170.8 207.23) translate(-540, -540)" d="M 0 1080 L 1080 1080 L 1080 0 L 0 0 Z" stroke-linecap="round" />
</clipPath>
<path style="stroke: none; stroke-width: 1; stroke-dasharray: none; stroke-linecap: butt; stroke-dashoffset: 0; stroke-linejoin: miter; stroke-miterlimit: 4; fill: rgb(71,34,92); fill-rule: nonzero; opacity: 1;" vector-effect="non-scaling-stroke"  transform=" translate(-4.66, 15.62)" d="M 0 0 L -4.034 0 L -4.034 -31.247 L 13.349 -31.247 L 13.349 -27.861 L 0 -27.861 Z" stroke-linecap="round" />
</g>
		<g transform="matrix(0.47 0 0 -0.47 -67.13 98.17)" clip-path="url(#CLIPPATH_32)"  >
<clipPath id="CLIPPATH_32" >
	<path transform="matrix(1 0 0 1 141.54 207.23) translate(-540, -540)" d="M 0 1080 L 1080 1080 L 1080 0 L 0 0 Z" stroke-linecap="round" />
</clipPath>
<path style="stroke: none; stroke-width: 1; stroke-dasharray: none; stroke-linecap: butt; stroke-dashoffset: 0; stroke-linejoin: miter; stroke-miterlimit: 4; fill: rgb(71,34,92); fill-rule: nonzero; opacity: 1;" vector-effect="non-scaling-stroke"  transform=" translate(-4.75, -0.97)" d="M 0 0 L 12.144 0 L 12.144 3.339 L 0 3.339 L 0 13.217 L 12.839 13.217 L 12.839 16.598 L -4.034 16.598 L -4.034 -14.65 L 13.535 -14.65 L 13.535 -11.263 L 0 -11.263 Z" stroke-linecap="round" />
</g>
		<g transform="matrix(0.47 0 0 -0.47 -51.97 98.17)" clip-path="url(#CLIPPATH_33)"  >
<clipPath id="CLIPPATH_33" >
	<path transform="matrix(1 0 0 1 109.52 207.23) translate(-540, -540)" d="M 0 1080 L 1080 1080 L 1080 0 L 0 0 Z" stroke-linecap="round" />
</clipPath>
<path style="stroke: none; stroke-width: 1; stroke-dasharray: none; stroke-linecap: butt; stroke-dashoffset: 0; stroke-linejoin: miter; stroke-miterlimit: 4; fill: rgb(71,34,92); fill-rule: nonzero; opacity: 1;" vector-effect="non-scaling-stroke"  transform=" translate(-4.82, -2.64)" d="M 0 0 L 3.063 9.039 C 3.662 10.939 4.172 12.839 4.639 14.697 L 4.729 14.697 C 5.191 12.887 5.658 11.035 6.354 8.991 L 9.411 0 Z M 2.368 18.264 L -8.254 -12.983 L -4.082 -12.983 L -0.833 -3.153 L 10.244 -3.153 L 13.583 -12.983 L 17.898 -12.983 L 7.235 18.264 Z" stroke-linecap="round" />
</g>
		<g transform="matrix(0.47 0 0 -0.47 -35.31 98.12)" clip-path="url(#CLIPPATH_34)"  >
<clipPath id="CLIPPATH_34" >
	<path transform="matrix(1 0 0 1 74.4 207.11) translate(-540, -540)" d="M 0 1080 L 1080 1080 L 1080 0 L 0 0 Z" stroke-linecap="round" />
</clipPath>
<path style="stroke: none; stroke-width: 1; stroke-dasharray: none; stroke-linecap: butt; stroke-dashoffset: 0; stroke-linejoin: miter; stroke-miterlimit: 4; fill: rgb(71,34,92); fill-rule: nonzero; opacity: 1;" vector-effect="non-scaling-stroke"  transform=" translate(-2.02, 0.86)" d="M 0 0 L -4.124 0 L -4.124 11.407 C -3.477 11.593 -2.086 11.778 -0.138 11.778 C 4.124 11.73 7.049 9.968 7.049 5.934 C 7.049 2.368 4.31 0 0 0 M 5.191 -1.714 L 5.191 -1.576 C 8.482 -0.462 11.083 2.272 11.083 6.396 C 11.083 8.811 10.202 10.939 8.625 12.33 C 6.677 14.092 3.896 14.883 -0.42 14.883 C -3.201 14.883 -6.12 14.65 -8.158 14.236 L -8.158 -16.598 L -4.124 -16.598 L -4.124 -3.057 L -0.324 -3.057 C 3.339 -3.201 5.005 -4.819 5.934 -9.135 C 6.815 -13.025 7.511 -15.716 8.02 -16.598 L 12.192 -16.598 C 11.545 -15.393 10.801 -12.378 9.782 -8.02 C 9.039 -4.771 7.6 -2.547 5.191 -1.714" stroke-linecap="round" />
</g>
		<g transform="matrix(0.47 0 0 -0.47 -19.3 98.17)" clip-path="url(#CLIPPATH_35)"  >
<clipPath id="CLIPPATH_35" >
	<path transform="matrix(1 0 0 1 40.62 207.23) translate(-540, -540)" d="M 0 1080 L 1080 1080 L 1080 0 L 0 0 Z" stroke-linecap="round" />
</clipPath>
<path style="stroke: none; stroke-width: 1; stroke-dasharray: none; stroke-linecap: butt; stroke-dashoffset: 0; stroke-linejoin: miter; stroke-miterlimit: 4; fill: rgb(71,34,92); fill-rule: nonzero; opacity: 1;" vector-effect="non-scaling-stroke"  transform=" translate(7.93, 2.55)" d="M 0 0 C 0 -4.867 0.096 -8.667 0.468 -12.839 L 0.372 -12.887 C -1.109 -9.686 -2.919 -6.396 -5.239 -2.733 L -15.249 13.073 L -19.655 13.073 L -19.655 -18.174 L -15.854 -18.174 L -15.854 -4.819 C -15.854 0.372 -15.944 4.124 -16.178 8.068 L -16.04 8.116 C -14.464 4.729 -12.378 1.157 -10.196 -2.32 L -0.276 -18.174 L 3.8 -18.174 L 3.8 13.073 L 0 13.073 Z" stroke-linecap="round" />
</g>
		<g transform="matrix(0.47 0 0 -0.47 6.24 98.17)" clip-path="url(#CLIPPATH_36)"  >
<clipPath id="CLIPPATH_36" >
	<path transform="matrix(1 0 0 1 -13.26 207.23) translate(-540, -540)" d="M 0 1080 L 1080 1080 L 1080 0 L 0 0 Z" stroke-linecap="round" />
</clipPath>
<path style="stroke: none; stroke-width: 1; stroke-dasharray: none; stroke-linecap: butt; stroke-dashoffset: 0; stroke-linejoin: miter; stroke-miterlimit: 4; fill: rgb(71,34,92); fill-rule: nonzero; opacity: 1;" vector-effect="non-scaling-stroke"  transform=" translate(-4.82, -2.64)" d="M 0 0 L 3.063 9.039 C 3.662 10.939 4.172 12.839 4.639 14.697 L 4.729 14.697 C 5.191 12.887 5.658 11.035 6.354 8.991 L 9.411 0 Z M 2.368 18.264 L -8.254 -12.983 L -4.082 -12.983 L -0.833 -3.153 L 10.244 -3.153 L 13.583 -12.983 L 17.898 -12.983 L 7.235 18.264 Z" stroke-linecap="round" />
</g>
		<g transform="matrix(0.47 0 0 -0.47 22.9 98.12)" clip-path="url(#CLIPPATH_37)"  >
<clipPath id="CLIPPATH_37" >
	<path transform="matrix(1 0 0 1 -48.39 207.11) translate(-540, -540)" d="M 0 1080 L 1080 1080 L 1080 0 L 0 0 Z" stroke-linecap="round" />
</clipPath>
<path style="stroke: none; stroke-width: 1; stroke-dasharray: none; stroke-linecap: butt; stroke-dashoffset: 0; stroke-linejoin: miter; stroke-miterlimit: 4; fill: rgb(71,34,92); fill-rule: nonzero; opacity: 1;" vector-effect="non-scaling-stroke"  transform=" translate(-2.02, 0.86)" d="M 0 0 L -4.124 0 L -4.124 11.407 C -3.477 11.593 -2.086 11.778 -0.138 11.778 C 4.124 11.73 7.049 9.968 7.049 5.934 C 7.049 2.368 4.31 0 0 0 M 5.191 -1.714 L 5.191 -1.576 C 8.482 -0.462 11.083 2.272 11.083 6.396 C 11.083 8.811 10.202 10.939 8.625 12.33 C 6.677 14.092 3.896 14.883 -0.42 14.883 C -3.201 14.883 -6.12 14.65 -8.158 14.236 L -8.158 -16.598 L -4.124 -16.598 L -4.124 -3.057 L -0.324 -3.057 C 3.339 -3.201 5.005 -4.819 5.934 -9.135 C 6.815 -13.025 7.511 -15.716 8.02 -16.598 L 12.192 -16.598 C 11.545 -15.393 10.801 -12.378 9.782 -8.02 C 9.039 -4.771 7.607 -2.547 5.191 -1.714" stroke-linecap="round" />
</g>
		<g transform="matrix(0.47 0 0 -0.47 38.53 98.17)" clip-path="url(#CLIPPATH_38)"  >
<clipPath id="CLIPPATH_38" >
	<path transform="matrix(1 0 0 1 -81.38 207.23) translate(-540, -540)" d="M 0 1080 L 1080 1080 L 1080 0 L 0 0 Z" stroke-linecap="round" />
</clipPath>
<path style="stroke: none; stroke-width: 1; stroke-dasharray: none; stroke-linecap: butt; stroke-dashoffset: 0; stroke-linejoin: miter; stroke-miterlimit: 4; fill: rgb(71,34,92); fill-rule: nonzero; opacity: 1;" vector-effect="non-scaling-stroke"  transform=" translate(-4.82, -2.64)" d="M 0 0 L 3.063 9.039 C 3.662 10.939 4.172 12.839 4.639 14.697 L 4.729 14.697 C 5.191 12.887 5.658 11.035 6.354 8.991 L 9.411 0 Z M 2.368 18.264 L -8.254 -12.983 L -4.082 -12.983 L -0.833 -3.153 L 10.244 -3.153 L 13.583 -12.983 L 17.898 -12.983 L 7.235 18.264 Z" stroke-linecap="round" />
</g>
		<g transform="matrix(0.47 0 0 -0.47 55.04 98.18)" clip-path="url(#CLIPPATH_39)"  >
<clipPath id="CLIPPATH_39" >
	<path transform="matrix(1 0 0 1 -116.18 207.25) translate(-540, -540)" d="M 0 1080 L 1080 1080 L 1080 0 L 0 0 Z" stroke-linecap="round" />
</clipPath>
<path style="stroke: none; stroke-width: 1; stroke-dasharray: none; stroke-linecap: butt; stroke-dashoffset: 0; stroke-linejoin: miter; stroke-miterlimit: 4; fill: rgb(71,34,92); fill-rule: nonzero; opacity: 1;" vector-effect="non-scaling-stroke"  transform=" translate(-2.44, -12.73)" d="M 0 0 C -1.433 0 -2.595 0.048 -3.381 0.186 L -3.381 12.096 L -0.042 12.096 C 4.358 12.096 8.02 10.34 8.02 6.072 C 8.02 1.528 4.172 0 0 0 M -3.381 25.217 C -2.733 25.355 -1.666 25.499 0.186 25.499 C 4.268 25.499 7.049 24.06 7.049 20.398 C 7.049 17.383 4.544 15.159 0.282 15.159 L -3.381 15.159 Z M 5.844 13.858 L 5.844 13.954 C 9.135 15.159 11.131 17.802 11.131 20.817 C 11.131 23.269 10.154 25.127 8.53 26.332 C 6.588 27.908 3.986 28.604 -0.042 28.604 C -2.871 28.604 -5.652 28.322 -7.415 27.956 L -7.415 -2.781 C -6.072 -2.967 -3.938 -3.153 -1.157 -3.153 C 3.944 -3.153 7.469 -2.224 9.644 -0.234 C 11.221 1.295 12.288 3.339 12.288 6.024 C 12.288 10.663 8.811 13.121 5.844 13.858" stroke-linecap="round" />
</g>
		<g transform="matrix(0.47 0 0 -0.47 66.73 98.17)" clip-path="url(#CLIPPATH_40)"  >
<clipPath id="CLIPPATH_40" >
	<path transform="matrix(1 0 0 1 -140.76 207.23) translate(-540, -540)" d="M 0 1080 L 1080 1080 L 1080 0 L 0 0 Z" stroke-linecap="round" />
</clipPath>
<path style="stroke: none; stroke-width: 1; stroke-dasharray: none; stroke-linecap: butt; stroke-dashoffset: 0; stroke-linejoin: miter; stroke-miterlimit: 4; fill: rgb(71,34,92); fill-rule: nonzero; opacity: 1;" vector-effect="non-scaling-stroke"  transform=" translate(-680.77, -332.77)" d="M 678.748 317.148 L 682.782 317.148 L 682.782 348.39503 L 678.748 348.39503 Z" stroke-linecap="round" />
</g>
		<g transform="matrix(0.47 0 0 -0.47 79.18 98.16)" clip-path="url(#CLIPPATH_41)"  >
<clipPath id="CLIPPATH_41" >
	<path transform="matrix(1 0 0 1 -167.12 207.2) translate(-540, -540)" d="M 0 1080 L 1080 1080 L 1080 0 L 0 0 Z" stroke-linecap="round" />
</clipPath>
<path style="stroke: none; stroke-width: 1; stroke-dasharray: none; stroke-linecap: butt; stroke-dashoffset: 0; stroke-linejoin: miter; stroke-miterlimit: 4; fill: rgb(71,34,92); fill-rule: nonzero; opacity: 1;" vector-effect="non-scaling-stroke"  transform=" translate(4.59, 12.73)" d="M 0 0 C 2.595 0 4.777 -0.557 6.306 -1.301 L 7.277 1.99 C 6.216 2.547 3.758 3.381 -0.138 3.381 C -9.83 3.381 -16.46 -3.249 -16.46 -13.031 C -16.46 -23.275 -9.83 -28.838 -1.019 -28.838 C 2.781 -28.838 5.748 -28.094 7.235 -27.357 L 6.396 -24.156 C 4.777 -24.941 2.272 -25.451 -0.186 -25.451 C -7.786 -25.451 -12.192 -20.542 -12.192 -12.887 C -12.192 -4.681 -7.325 0 0 0" stroke-linecap="round" />
</g>
</g>
</g>
</svg>