<?xml version="1.0" encoding="iso-8859-1"?>
<!-- Uploaded to: SVG Repo, www.svgrepo.com, Generator: SVG Repo Mixer Tools -->
<svg fill="#000000" height="150px" width="150px" version="1.1" id="Layer_1" xmlns="http://www.w3.org/2000/svg" xmlns:xlink="http://www.w3.org/1999/xlink" 
	 viewBox="0 0 512.001 512.001" xml:space="preserve">
<g>
	<g>
		<g>
			<path d="M167.331,277.436c-3.694,2.138-4.406,7.163-1.388,10.181l85.499,85.499c2.52,2.52,6.603,2.52,9.123,0l85.499-85.499
				c3.018-3.018,2.304-8.043-1.388-10.181C289.939,245.762,222.163,245.706,167.331,277.436z"/>
			<path d="M377.312,301.682c-2.54-2.379-6.518-2.304-8.979,0.156L265.125,405.046c-5.04,5.038-13.206,5.038-18.247,0
				L143.67,301.838c-2.46-2.46-6.438-2.535-8.979-0.156c-34.619,32.427-56.286,78.522-56.286,129.585v61.38
				c0,10.688,8.665,19.353,19.353,19.353h316.485c10.688,0,19.353-8.665,19.353-19.353v-61.38
				C433.597,380.204,411.931,334.109,377.312,301.682z"/>
			<path d="M156.128,238.41c8.766,0,190.985,0,199.749,0c10.688,0,19.353-8.665,19.353-19.353v-99.875c0-0.001,0-0.001,0-0.003
				c0-59.951-44.512-109.95-102.162-118.001h0.001C200.133-8.925,136.775,47.24,136.775,119.179c0,0.001,0,0.001,0,0.003v99.875
				C136.775,229.745,145.438,238.41,156.128,238.41z M194.516,67.249c28.69,48.508,88.914,70.303,142.006,51.506
				c0.001,0.141,0.001,0.283,0.001,0.424c0,44.4-36.122,80.521-80.521,80.521c-44.4,0-80.522-36.122-80.522-80.521
				C175.481,99.842,182.474,81.523,194.516,67.249z"/>
		</g>
	</g>
</g>
</svg>